<?xml version="1.0" encoding="utf-8"?>
<svg version="1.1" id="Warstwa_1" xmlns="http://www.w3.org/2000/svg" xmlns:xlink="http://www.w3.org/1999/xlink" x="0px" y="0px"
	 width="550px" height="350px" viewBox="0 0 300 300" style="enable-background:new 0 0 300 300;" xml:space="preserve">
<style type="text/css">
	.st0{fill:#47535A;}
</style>
<path class="st0" d="M153.4,143.2c4,12.8,7.8,24.8,13.9,33.2c3.3,4.5,6.9,6.7,11.2,7.6c11.7-8.6,19.2-22.5,18.9-38.1
	c-0.4-25.5-21.5-45.8-46.9-45.3c-4.8,0.1-9.3,0.9-13.6,2.3C145.1,113.2,148.7,128.4,153.4,143.2z"/>
<path class="st0" d="M160.1,184.6c-5.7-7.9-10.1-21.3-13.7-32.7c-2.2,3.6-5,9.1-6.9,14.5c-2.7,7.7-4.4,15.1-5.1,23.2
	c5.5,2.2,11.5,3.3,17.8,3.2c4.6-0.1,9-0.8,13.2-2.2C163.5,188.9,161.7,186.9,160.1,184.6z"/>
<path class="st0" d="M143.6,143c-4.3-13.6-9.1-27.2-17.6-34.8c-12.8,8.4-21.1,23-20.8,39.4c0.3,15,7.6,28.1,18.8,36.4
	C127.5,165.7,139.3,148.9,143.6,143z"/>
<path class="st0" d="M208.9,145.7c0.3,16.1-6,30.7-16.4,41.3c8.4,0.8,34.6,1.6,43.4-18.2c2-7.5,2.9-15.5,2.8-23.6
	c-0.9-48.3-40.7-86.7-89-85.9c-26.8,0.5-50.6,13-66.3,32.3c24.7-10.2,40.4,0.1,43.8,2.7c7-3.2,14.8-5.1,23.1-5.3
	C182.1,88.5,208.4,113.8,208.9,145.7z"/>
<path class="st0" d="M178.6,197.5c-7.8,4.2-16.8,6.7-26.3,6.9c-31.8,0.6-58.1-24.8-58.7-56.6c-0.3-17.1,6.9-32.6,18.5-43.4
	c-5.2-0.8-33.9-4-46.2,23.1c-1.5,6.7-2.2,13.6-2.1,20.8c0.9,48.3,40.7,86.7,89,85.9c28.9-0.5,54.3-15,69.8-36.9
	C203.2,204.2,184.6,199.4,178.6,197.5z"/>
<path class="st0" d="M151,45.9c55.8,0,101.1,45.3,101.1,101.1S206.8,248.1,151,248.1S49.9,202.8,49.9,147S95.2,45.9,151,45.9
	 M151,35.9c-29.7,0-57.6,11.6-78.5,32.5c-21,21-32.5,48.9-32.5,78.5s11.6,57.6,32.5,78.5c21,21,48.9,32.5,78.5,32.5
	s57.6-11.6,78.5-32.5c21-21,32.5-48.9,32.5-78.5s-11.6-57.6-32.5-78.5C208.6,47.5,180.7,35.9,151,35.9L151,35.9z"/>
</svg>
