<svg xmlns="http://www.w3.org/2000/svg" xmlns:xlink="http://www.w3.org/1999/xlink" version="1.1" width="1133" height="159" enable-background="new 0 0 708.66 283.46" xml:space="preserve" style=""><rect id="backgroundrect" width="100%" height="100%" x="0" y="0" fill="none" stroke="none" style="" class=""/>


<g class="currentLayer" style=""><title>Layer 1</title><g id="svg_1" class="">
	<path fill="none" stroke="#C3CCCD" stroke-width="6" stroke-miterlimit="10" d="M78.6854628257172,25.288370084300716 c-29.703543683310972,0 -54.02149464643749,24.240598090857127 -54.02149464643749,54.235513364696835 s24.317950963126513,54.235513364696835 54.02149464643749,54.235513364696835 s54.02149464643749,-24.41429218304063 54.02149464643749,-54.235513364696835 S108.38900650902816,25.288370084300716 78.6854628257172,25.288370084300716 z" id="svg_2"/>
	<path fill="#484848" d="M153.89959038004463,78.65167763125886 L153.89959038004463,78.65167763125886 c-2.2584143565816697,-4.1854673180993025 -2.6062920210633607,-8.893884591159692 -1.3896503495605501,-13.428607772036578 c2.083545370157719,-7.14947295568234 -0.5208863425394299,-14.823763544736344 -6.42736540526332,-19.356619047202653 c-3.8210733841999582,-2.790311545399534 -6.252496418839369,-6.80208477131533 -6.948251747802749,-11.51050204437572 c-1.2166416715028119,-7.32503472627642 -6.7752430697450094,-13.253046001442497 -14.069512173663236,-14.648201774142263 c-4.516828713163339,-0.8722058177386772 -8.685779761844989,-3.4869555925441293 -11.290211474542136,-7.32503472627642 l0,0 c-4.168951048681649,-6.103573045760157 -11.811097817081569,-8.893884591159692 -19.107227229366007,-6.975778863498836 c-4.516828713163339,1.2214616805162626 -9.206666104384418,0.6966440471445983 -13.200748166642116,-1.7444116354773527 c-6.42736540526332,-3.662517363138211 -14.590398516202665,-2.790311545399534 -20.148999914444865,2.091799819844363 l0,0 c-3.4731957197182686,3.139567408177119 -7.990024432881607,4.534723180876886 -12.679861824102685,4.359161410282805 c-7.469138090342177,-0.5229499549610913 -14.417389838144928,3.8362114553217146 -17.369699215323763,10.638296226637044 c-1.9105366920999793,4.359161410282805 -5.210723733760509,7.672422910643429 -9.554543768866111,9.416834546120782 c-6.948251747802749,2.790311545399534 -11.290211474542136,9.592396316714861 -10.944194118426658,17.091125135174792 l0,0 c0.17300867805773934,4.708417273060391 -1.3896503495605501,9.243140453937277 -4.516828713163339,12.5564019542979 c-5.210723733760509,5.754317182982572 -6.252496418839369,13.95155772699767 -2.7793006991211,20.578080727718916 l0,0 c2.2584143565816697,4.1854673180993025 2.6062920210633607,8.893884591159692 1.3896503495605501,13.428607772036578 l0,0 c-2.083545370157719,7.14947295568234 0.5208863425394299,14.823763544736344 6.42736540526332,19.356619047202653 l0,0 c3.8210733841999582,2.790311545399534 6.252496418839369,6.80208477131533 6.948251747802749,11.51050204437572 c1.2166416715028119,7.32503472627642 6.7752430697450094,13.253046001442497 14.069512173663236,14.648201774142263 c4.516828713163339,0.8722058177386772 8.685779761844989,3.4869555925441293 11.290211474542136,7.32503472627642 l0,0 c4.168951048681649,6.103573045760157 11.811097817081569,8.893884591159692 19.107227229366007,6.975778863498836 c4.516828713163339,-1.2214616805162626 9.206666104384418,-0.6966440471445983 13.200748166642116,1.7444116354773527 c6.42736540526332,3.662517363138211 14.590398516202665,2.790311545399534 20.148999914444865,-2.091799819844363 l0,0 c3.4731957197182686,-3.139567408177119 7.990024432881607,-4.534723180876886 12.679861824102685,-4.359161410282805 c7.469138090342177,0.5229499549610913 14.417389838144928,-3.8362114553217146 17.369699215323763,-10.638296226637044 l0,0 c1.9105366920999793,-4.359161410282805 5.210723733760509,-7.672422910643429 9.554543768866111,-9.416834546120782 c6.948251747802749,-2.790311545399534 11.290211474542136,-9.592396316714861 10.944194118426658,-17.091125135174792 c-0.17300867805773934,-4.708417273060391 1.3896503495605501,-9.243140453937277 4.516828713163339,-12.5564019542979 C156.33101341468404,93.47544117599517 157.3727860997629,85.27820063198013 153.89959038004463,78.65167763125886 zM78.6854628257172,141.43181972433783 c-34.04550341005036,0 -61.66364141483741,-27.727553683401254 -61.66364141483741,-61.907936275340255 s27.618138004787046,-61.907936275340255 61.66364141483741,-61.907936275340255 s61.66364141483741,27.727553683401254 61.66364141483741,61.907936275340255 S112.73096623576755,141.43181972433783 78.6854628257172,141.43181972433783 z" id="svg_3"/>
	<g id="svg_4">
		<g id="svg_5">
			<path fill="#484848" d="M85.34722708512325,92.09896218740117 c-2.0091330355092287,-5.759920218214298 -3.728057965889347,-11.519840436428597 -5.7371910013985765,-18.432118233967866 h-0.8594624651900581 c-1.147810261952959,5.759920218214298 -3.44157047749266,12.095085386885795 -5.45070351300189,17.85500560510009 l-17.211573004195728,49.24694433005014 h-16.063762742242766 l30.693227734135892,-78.62179037157884 c0.5729749767933738,-2.0170926834213496 1.147810261952959,-3.16758258433575 1.147810261952959,-4.0323176884321255 c0,-1.1523575793249754 -0.2864874883966871,-2.5923376338785493 -1.147810261952959,-4.607562638889323 c-5.45070351300189,-14.975045495992948 -11.760869491193837,-26.78250840765014 -22.087441232038024,-26.78250840765014 c-0.8594624651900581,0 -2.0091330355092287,0 -2.8685955006992883,0.2876224752286007 l1.147810261952959,-12.095085386885795 c1.4342977503496448,-0.5752449504572001 3.728057965889347,-0.5752449504572001 6.023678489795261,-0.5752449504572001 c16.63673771903614,0 24.38306175594394,16.12740307531792 33.56182323483518,40.317573849089506 l32.41401297288222,86.39693559480389 h-16.350250230639453 L85.34722708512325,92.09896218740117 z" id="svg_6"/>
		</g>
	</g>
	<polygon fill="#C3CCCD" points="29.74260950088501,61.10111045837402 26.468464374542236,80.8873119354248 18.216135501861572,79.52389335632324 22.909698963165283,69.88668632507324 21.386105060577393,59.9039363861084 " id="svg_7"/>
	<polygon fill="#C3CCCD" points="135.41369485855103,87.10479545593262 136.25829935073853,97.27802848815918 128.1641068458557,96.17052268981934 131.26708841323853,76.31896781921387 139.89520120620728,77.38726615905762 " id="svg_8"/>
	<polygon fill="#C3CCCD" points="132.70696878433228,76.68126487731934 130.0002121925354,96.42076683044434 25.582960605621338,80.74162101745605 29.74260950088501,61.10111045837402 " id="svg_9"/>
	<polyline fill="#484848" points="84.61985635757446,89.97728538513184 76.58890390396118,65.97948265075684 88.46138620376587,59.9039363861084 103.32153177261353,99.51180076599121 " id="svg_10"/>
</g><g id="svg_11" class="">
	<path fill="#484848" d="M225.73642059727473,107.0590048105424 c-4.899939480110157,6.6096616278511675 -12.183297548336192,11.437575492374883 -21.738268269420246,11.437575492374883 c-21.862497086373423,0 -25.124390880086743,-22.036158277558965 -25.124390880086743,-35.88843186183103 c0,-13.957518252488581 3.263668491098364,-35.99515884931821 25.124390880086743,-35.99515884931821 c9.554970721084057,0 16.08230770328078,4.614459889549378 20.4800078234231,11.330848504887713 l-7.160903948657906,3.5723894422788325 c-2.6389750115624064,-4.408417510928318 -6.90534752521138,-8.292094000044724 -13.319103874765203,-8.292094000044724 c-15.324511919866422,0 -16.32721594241703,20.149165846015 -16.32721594241703,29.38549722146704 c0,9.129604387964863 1.002704022550612,29.27877023397987 16.32721594241703,29.27877023397987 c6.536210469121951,0 11.682832885753408,-4.5166268176861415 14.832920744208868,-8.81831734112729 L225.73642059727473,107.0590048105424 z" id="svg_12"/>
	<path fill="#484848" d="M261.21439602171597,47.55722696717535 h8.408516210344773 v63.69674137932103 h34.42380517772427 v6.296892261742937 H261.21439602171597 V47.55722696717535 z" id="svg_13"/>
	<path fill="#484848" d="M376.3336912974513,82.50142145359906 c0,8.813870383315326 0.3780105430146588,35.99515884931821 -23.243211651938687,35.99515884931821 c-23.866130434089598,0 -23.243211651938687,-26.97079912956985 -23.243211651938687,-35.99515884931821 c0,-11.54430247986205 0.8802499029824844,-35.88843186183103 23.243211651938687,-35.88843186183103 C376.71170184046605,46.61298959176804 376.3336912974513,73.26805471668838 376.3336912974513,82.50142145359906 zM338.64621762862885,82.50142145359906 c0,18.8877121466875 2.6389750115624064,29.38549722146704 14.444262016883938,29.38549722146704 c14.57736432076234,0 14.454910201194215,-17.21269137084722 14.454910201194215,-29.38549722146704 c0,-13.22228789424364 0.3780105430146588,-29.27877023397987 -14.454910201194215,-29.27877023397987 C338.26643238822896,53.22265121961921 338.64621762862885,72.21709035379388 338.64621762862885,82.50142145359906 z" id="svg_14"/>
	<path fill="#484848" d="M412.9368248640113,92.15724918264652 v7.0321226199878755 c0,5.558697264956688 2.8945314350089335,12.697546872431733 12.440628669167761,12.697546872431733 c7.538914491672564,0 12.060843428768061,-5.669871210255822 12.060843428768061,-13.64623120565101 v-50.68346050223976 h8.419164394655045 v51.41720854121403 c0,13.330497201001467 -10.302118320188143,19.52066247525723 -21.104701302959064,19.52066247525723 c-10.302118320188143,0 -20.224451399976584,-6.0878852445805665 -20.224451399976584,-19.831949522094806 v-6.507381598175963 H412.9368248640113 z" id="svg_15"/>
	<path fill="#484848" d="M491.88246334036774,47.55722696717535 v50.89691447721408 c0,6.9253956325007096 1.6362709890117957,13.432777230676669 12.060843428768061,13.432777230676669 c10.435220624066542,0 12.193945732646464,-6.61410858566313 12.193945732646464,-13.432777230676669 v-50.89691447721408 h8.408516210344773 v52.994396245191076 c0,10.911352151292315 -8.163607971208515,17.94347477128019 -20.604236640376286,17.94347477128019 c-12.68553690830402,0 -20.471134336497883,-7.241129637150246 -20.471134336497883,-17.62774076663065 v-53.31013024984062 H491.88246334036774 z" id="svg_16"/>
	<path fill="#484848" d="M562.0415750633648,47.55722696717535 h22.60786998809246 c8.296710275086918,0 18.721282714843184,5.981158257093397 18.721282714843184,18.57197814203796 c0,8.604863366152953 -4.143918394080846,16.790230378710508 -14.444262016883938,19.729669492419603 l17.340568149277917,30.014000592224807 l-7.538914491672564,3.0417191433842996 l-18.854385018721583,-32.52949639452654 h-9.421868417205657 v31.167244984794493 h-8.408516210344773 V47.55722696717535 zM570.4500912737095,80.08672336170191 h12.316399852214591 c7.283358068226032,0 11.805287005321533,-4.512179859874175 11.805287005321533,-13.957518252488581 c0,-9.129604387964863 -5.269076536199587,-12.275085880295023 -13.821343234733028,-12.275085880295023 h-10.302118320188143 V80.08672336170191 z" id="svg_17"/>
	<path fill="#484848" d="M636.83264696133,47.55722696717535 h40.83933622466314 v6.296892261742937 h-32.41839713262304 v23.084158001912137 h26.762436566483576 v6.296892261742937 h-26.762436566483576 v28.018798853923023 h32.41839713262304 v6.296892261742937 h-40.83933622466314 V47.55722696717535 z" id="svg_18"/>
	<path fill="#484848" d="M753.7230902273409,107.0590048105424 c-4.899939480110157,6.6096616278511675 -12.183297548336192,11.437575492374883 -21.738268269420246,11.437575492374883 c-21.862497086373423,0 -25.124390880086743,-22.036158277558965 -25.124390880086743,-35.88843186183103 c0,-13.957518252488581 3.263668491098364,-35.99515884931821 25.124390880086743,-35.99515884931821 c9.554970721084057,0 16.08230770328078,4.614459889549378 20.4800078234231,11.330848504887713 l-7.160903948657906,3.5723894422788325 c-2.6389750115624064,-4.408417510928318 -6.90534752521138,-8.292094000044724 -13.319103874765203,-8.292094000044724 c-15.324511919866422,0 -16.32721594241703,20.149165846015 -16.32721594241703,29.38549722146704 c0,9.129604387964863 1.002704022550612,29.27877023397987 16.32721594241703,29.27877023397987 c6.536210469121951,0 11.682832885753408,-4.5166268176861415 14.824047257283638,-8.81831734112729 L753.7230902273409,107.0590048105424 z" id="svg_19"/>
	<path fill="#484848" d="M794.2234592514602,95.9327163650051 l-6.536210469121951,22.980395652966273 l-8.286062090776646,-1.8884747508146196 l21.22715542252719,-69.46889261925206 h10.05543538366684 l21.22715542252719,69.46889261925206 l-8.286062090776646,1.8884747508146196 l-6.536210469121951,-22.980395652966273 H794.2234592514602 zM805.7838380176454,56.897320691573235 h-0.2555564234465288 l-9.299414297637528,32.73850341168891 h18.843736834411313 L805.7838380176454,56.897320691573235 z" id="svg_20"/>
	<path fill="#484848" d="M858.3361769836077,53.85560154818892 v-6.296892261742937 h22.118053509819944 c16.83832878931009,0 26.762436566483576,6.1901652742557705 26.762436566483576,35.0509214739109 c0,15.423532011166495 -1.002704022550612,34.944194486423726 -26.506880143037044,34.944194486423726 h-22.373609933266476 v-6.296892261742937 h6.7935415899535245 v-57.39984911757809 H858.3361769836077 zM873.5382347839063,111.25396834649635 h6.915995709521653 c10.179664200620012,0 17.96348693142883,-2.204208755464159 17.96348693142883,-28.645819905410132 c0,-26.65506512492031 -8.541618514223174,-28.7525468928973 -15.959853583712656,-28.7525468928973 h-8.921403754622876 V111.25396834649635 z" id="svg_21"/>
	<path fill="#484848" d="M938.5400759059615,47.55722696717535 h40.83933622466314 v6.296892261742937 h-32.41839713262304 v23.084158001912137 h26.762436566483576 v6.296892261742937 h-26.762436566483576 v28.018798853923023 h32.41839713262304 v6.296892261742937 h-40.83933622466314 V47.55722696717535 z" id="svg_22"/>
	<path fill="#484848" d="M1043.992594525355,47.55722696717535 h10.557674743634667 l2.5165208919942783,69.99363364106397 h-8.921403754622876 l-1.6362709890117957,-58.34705113152671 h-0.2555564234465288 l-14.321807897315812,35.15764846139806 l-14.321807897315812,-35.15764846139806 h-0.24490823913625762 l-1.6362709890117957,58.34705113152671 h-8.797174937669702 l2.5165208919942783,-69.99363364106397 h10.424572439756266 l12.060843428768061,29.6967842683046 L1043.992594525355,47.55722696717535 z" id="svg_23"/>
	<path fill="#484848" d="M1125.4547538937056,46.194975557443286 l7.785597428193863,2.623705109059557 l-21.72939478249502,41.1343597606795 v27.59930250032762 h-8.419164394655045 v-27.59930250032762 l-21.61581414985212,-41.1343597606795 l7.794470915119089,-2.623705109059557 l18.087715748382003,35.57121553791084 L1125.4547538937056,46.194975557443286 z" id="svg_24"/>
</g></g></svg>